<svg xmlns="http://www.w3.org/2000/svg" viewBox="0 0 179.8 48"><path d="M11.7 7.9H0v32h9.7v-8.1h4.8c8.4 0 11-6.1 11-11.6 0-9.6-3-12.3-13.8-12.3zm25.6 0h-9.6v32H47v-7.6h-9.7V7.9zm27.1 21.9c0 2.3-.8 3.8-3.3 3.8s-3.3-1.6-3.3-3.8V7.9h-9.7v20.4c0 10.7 5.4 12.4 13 12.4 7.5 0 13-1.7 13-12.4V7.9h-9.8v21.9h.1zM90.1 7.3c-7.4 0-13.3 2.5-13.3 12.3V28c0 10.6 5.9 12.7 13.2 12.7 7.3 0 12.9-2.2 12.9-12.8v-5.8h-13V29h4v.7c0 2.6-.8 4-3.9 4-2.7 0-3.6-1.2-3.6-3.9V17.9c0-2.4 1.2-3.5 3.6-3.5 2.4 0 3.6 1.2 3.6 3.5v1.7h9.2v-1.7c0-8.1-5.4-10.6-12.7-10.6zm27.9 0c-7.4 0-13.3 2.5-13.3 12.3V28c0 10.6 5.9 12.7 13.2 12.7 7.3 0 12.9-2.2 12.9-12.8v-5.8h-12.9V29h4v.7c0 2.6-.8 4-3.9 4-2.7 0-3.6-1.2-3.6-3.9V17.9c0-2.4 1.2-3.5 3.6-3.5 2.4 0 3.6 1.2 3.6 3.5v1.7h9.2v-1.7c0-8.1-5.5-10.6-12.8-10.6zm48.3.6h-13v8.7h-12.7v3.5h12.7v7.6h-12.7v3.5h12.7v8.7h13c8 0 13.5-2.4 13.5-15.4v-1.3c0-12.8-5.5-15.3-13.5-15.3z" fill="#fff"/></svg>