<?xml version="1.0" encoding="utf-8"?>
<!-- Generator: Adobe Illustrator 24.0.3, SVG Export Plug-In . SVG Version: 6.00 Build 0)  -->
<svg version="1.1" id="Layer_1" xmlns="http://www.w3.org/2000/svg" xmlns:xlink="http://www.w3.org/1999/xlink" x="0px" y="0px"
	 viewBox="0 0 114 24" style="enable-background:new 0 0 114 24;" xml:space="preserve">
<style type="text/css">
	.st0{fill:#FFFFFF;}
</style>
<path class="st0" d="M55.7,5c0,3.7,0,5.3-0.2,7.7c-0.1,2.4-0.3,9.1-7.9,9.3c-8.1,0.2-8-6.4-8-9c0-2.6,0-5.1,0-6.6
	c0-1.7,0.2-4.4,1.9-4.4c1.1,0,1.8,1.9,2.1,3.9c0.2,2.1,0.3,5.4,0.4,6.8c0.1,3.4,0.5,6.2,3.6,6.3c2.6,0.1,3.6-3,4-6.1
	c0.2-1.7,0.5-4.9,0.9-7.6C52.6,3.5,53.2,2,54.2,2C55.1,2,55.7,2.8,55.7,5z M15.4,4c-1.1,0-1.7,4.7-1.8,5.3c0,0-0.4,3-1.8,3
	c-0.7,0-2.2-1.4-4-5.3c-2-4.4-3.8-5-4.5-4.9C2.3,2.2,0.5,3.4,0.2,12c-0.3,8.4,0,9.7,1.4,9.7s1.6-5.6,1.8-6.8
	c0.2-1.2,0.5-3.4,1.6-3.4c1.1,0,2.8,2.7,3.8,4.3c0.9,1.6,3.1,6.3,4.9,6.3s2.7-2.5,2.9-8.2C16.8,8,16.5,4,15.4,4z M30.5,18.9
	c-2.7-0.6-3.2-1.6-3.2-2.8c0-1.6,1.7-2.7,3.7-3.1c1.7-0.3,2.6-0.5,2.6-1.5c0-1.1-1.9-1.2-4.1-1.9c-1.3-0.4-1.9-1.4-1.9-2.7
	c0-2,1.8-3.3,1-4.1c-1.2-1.3-5.5,0.6-5.7,9.1c-0.1,4.7-0.8,10,4.7,10c5.9,0,6.3-0.6,6.3-1.4C33.9,20,33,19.5,30.5,18.9z M74.3,3.4
	c-0.9-0.5-1.6-0.9-2-0.4c-0.4,0.4,0.1,1.2,0.4,2.1c0,0,0.4,0.9,0.4,2.6s-1.3,3.3-3.8,3.3c-2.3,0-3-1.8-2.8-3.8
	c0.1-2.4,1.6-3.4,0.7-4.2c-0.5-0.4-2.5-1-3.8,1.7c-2,4-1.8,12.2-1.7,14c0.2,1.8,0.4,3.2,1.3,3.3c1.1,0.2,2-0.7,2.7-2.7
	c0.9-2.5,1.4-3.6,2.6-3.6c1.6,0,3.8,3.8,4.6,4.9c0.6,0.9,1.5,1.6,2.4,1.4c1-0.3,1.1-1.3,0.5-2.6c-0.6-1.4-1.5-3.2-1.2-5.5
	c0.3-2.1,2-2.9,2.2-6.1C77.1,5.6,75.1,3.8,74.3,3.4z M92.7,4.8c3.6,6.2,4.6,13.6,4.6,14.7c0,0.9-0.1,2.2-1.1,2.5
	c-1.1,0.3-2.5-1.1-4-3.4c-0.5-0.7-1.6-2.4-3.1-2.4c-1.7,0-2.3,2-3.7,3.5c-1.6,1.9-2.6,2.4-3.4,2.2c-0.9-0.2-1.1-1.7-0.6-3.3
	C82,17,85.4,8.4,86.9,5.2C88.3,2.5,89.3,2,90,2C90.6,2,91.3,2.3,92.7,4.8z M91,10.8c0-1.4-1.3-3.3-1.3-3.3s-1,2.2-0.9,3.3
	c0,0.6,0.4,1.4,0.8,2c0.2,0.3,0.6,0.3,0.8,0C90.6,12.3,91,11.5,91,10.8z M111.5,19.4c-1.7-0.4-4.5-0.6-4.5-5.8
	c0-5.3-0.4-7.6-0.5-8.6C106.4,4,106,2,105.2,2c-0.5,0-1.1,0.5-1.4,2.9c-0.2,1.8-1.3,11.5-1,13.5c0.2,1.5,0.9,3.6,3.6,3.6
	c2.5,0,4.7-0.4,5.4-0.5c0.7-0.1,2.1-0.3,2.1-1C113.9,20.1,113.1,19.7,111.5,19.4z"/>
</svg>
