<svg xmlns="http://www.w3.org/2000/svg" viewBox="0 0 99 24"><path d="M24.39528,4.38031A4.74953,4.74953,0,0,1,25.18188,7.13q0,.315-.05471.86183H17.75369a1.65851,1.65851,0,0,0-.896-1.72366,6.5737,6.5737,0,0,0-2.97538-.51984,5.56211,5.56211,0,0,0-3.32422.7524,1.51219,1.51219,0,0,0-.67031,1.24487.87486.87486,0,0,0,.48564.80711,4.60316,4.60316,0,0,0,1.52531.42408l6.63474.77975q5.82765.67032,5.82763,5.13a7.94364,7.94364,0,0,1-.61558,2.92065,6.05078,6.05078,0,0,1-1.95624,2.59235,10.0413,10.0413,0,0,1-3.7346,1.6963,29.12963,29.12963,0,0,1-6.66211.57456,34.62624,34.62624,0,0,1-3.72777-.17784,16.7567,16.7567,0,0,1-3.02325-.60192A7.36127,7.36127,0,0,1,2.32962,20.7825a4.75969,4.75969,0,0,1-1.42955-1.751,5.6201,5.6201,0,0,1-.51984-2.48973,9.53982,9.53982,0,0,1,.08208-1.20382H7.86314a2.09828,2.09828,0,0,0,.88236,2.223,7.03,7.03,0,0,0,3.26265.56772,6.97486,6.97486,0,0,0,3.844-.75239,1.65521,1.65521,0,0,0,.725-1.34064,1.15,1.15,0,0,0-.60191-1.05335,4.63811,4.63811,0,0,0-1.77838-.49247l-5.82764-.725q-5.99178-.725-5.99179-5.02052a6.54291,6.54291,0,0,1,.57456-2.61286A6.42992,6.42992,0,0,1,4.60733,3.84679,9.27318,9.27318,0,0,1,8.30774,1.97264a23.87381,23.87381,0,0,1,6.19014-.64294,27.99077,27.99077,0,0,1,4.28865.29411,13.21741,13.21741,0,0,1,3.35158.95074A5.24129,5.24129,0,0,1,24.39528,4.38031ZM45.93428,2,44.53893,9.27771H34.279L35.688,2H29.24481L25.346,22h6.44322l1.51848-7.67441L43.554,14.29823,52.3775,2Zm-3.8851,20h6.44324l1.49609-7.70177H43.554Zm15.90013,0,1.31328-6.68945h13.119L73.2708,10.591H60.16545L51.50609,22ZM77.01909,2l-.95761,5.08893h7.565L80.74,22h6.4569l2.8729-14.91107h7.565L98.61977,2ZM53.71454,10.591h6.45091l.69768-3.58412h13.762L75.569,2H55.3775Z" fill="#fff"/></svg>