<?xml version="1.0" encoding="utf-8"?>
<!-- Generator: Adobe Illustrator 24.0.1, SVG Export Plug-In . SVG Version: 6.00 Build 0)  -->
<svg version="1.1" id="Layer_1" xmlns="http://www.w3.org/2000/svg" xmlns:xlink="http://www.w3.org/1999/xlink" x="0px" y="0px"
	 viewBox="0 0 65.6 24" style="enable-background:new 0 0 65.6 24;" xml:space="preserve">
<style type="text/css">
	.st0{fill:#FFFFFF;}
</style>
<title>logo</title>
<g>
	<path class="st0" d="M18.9,8.9h3.3c-0.3-0.5-0.5-1.4-0.5-2.7c0-2.1,0.4-3.2,1.3-3.2c0.8,0,1.3,1.1,1.3,3.2c0,1.3-0.2,2.2-0.5,2.7
		h3.3c0-0.2,0.1-0.3,0.1-0.5c0.3-1.4,0.3-3,0-4.4c-0.2-0.7-0.4-1.4-0.8-2c-0.3-0.6-0.8-1.1-1.4-1.5c-1.9-1.1-4.4-0.5-5.6,1.4
		c0,0,0,0,0,0.1c-0.4,0.6-0.6,1.3-0.8,2c-0.3,1.4-0.3,3,0,4.4C18.8,8.6,18.9,8.7,18.9,8.9z"/>
	<polygon class="st0" points="42.6,8.9 45.8,8.9 45.8,3.1 47.7,3.1 47.7,0.2 40.8,0.2 40.8,3.1 42.6,3.1 	"/>
	<polygon class="st0" points="51.6,8.9 51.6,7.3 53.1,7.3 53.1,8.9 56.3,8.9 56.3,0.2 53.1,0.2 53.1,4.5 51.6,4.5 51.6,0.2 
		48.4,0.2 48.4,8.9 	"/>
	<path class="st0" d="M33.6,8.9l0.2-1.5c0,0,0.1-0.9,0.3-2.6h0c0,0.1,0.1,0.5,0.1,1.1c0.1,0.6,0.1,1.1,0.2,1.5l0.3,1.5H39l1.7-8.6
		h-3.2L36.9,5c-0.1,0.3-0.1,0.8-0.2,1.4c-0.1,0.6-0.1,1-0.1,1.2h0c0-0.2-0.1-0.6-0.2-1.2c-0.1-0.6-0.1-1.1-0.2-1.4l-0.8-4.8h-2.8
		L31.8,5c-0.1,0.3-0.1,0.9-0.2,1.5c-0.1,0.7-0.1,1-0.1,1.1h0C31.3,6,31.2,5.1,31.2,5l-0.7-4.8h-3.2l1.9,8.6L33.6,8.9z"/>
	<path class="st0" d="M0.6,8.9h3.3c0,0,0,0,0-0.1C3.7,8.6,3.7,8.5,3.7,8.3c0-0.2-0.1-0.3-0.1-0.5c0-0.2,0-0.4,0-0.5
		c0-0.1,0-0.3,0-0.5c0-0.2,0-0.3,0-0.4V6.3c0-0.1,0-0.3,0-0.4c0-0.2,0-0.3,0-0.5c0-0.2,0-0.4,0-0.6c0-0.2,0.1-0.4,0.1-0.6
		c0-0.2,0.1-0.4,0.2-0.5C3.9,3.6,4,3.4,4.1,3.3C4.2,3.2,4.3,3.1,4.4,3c0.1-0.1,0.3-0.1,0.5-0.1c0.3,0,0.5,0.2,0.6,0.4
		c0.2,0.2,0.3,0.5,0.3,0.8L8.9,3C8.6,2.1,8,1.4,7.3,0.8C6.6,0.3,5.7,0,4.8,0C4.1,0,3.3,0.2,2.6,0.6C2,0.9,1.5,1.4,1.2,2
		C0.9,2.7,0.6,3.3,0.4,4C0.3,4.8,0.2,5.5,0.2,6.3c0,0.8,0.1,1.5,0.2,2.2C0.5,8.6,0.5,8.7,0.6,8.9z"/>
	<path class="st0" d="M4.7,7.8h1.2c0,0.4-0.1,0.7-0.2,1.1h3.2c0.2-1,0.3-2,0.3-3.1l0-0.5H4.7V7.8z"/>
	<path class="st0" d="M13.2,8.9c0-0.1,0-0.3,0-0.4c0-0.2,0-0.4,0-0.7c0-0.2,0-0.4,0-0.6l0,0l0.6,1.7h3.1l-0.8-1.7
		C16.6,7,17.1,6.6,17.4,6c0.3-0.6,0.5-1.2,0.5-1.8c0-0.7-0.1-1.3-0.3-1.9c-0.2-0.5-0.6-0.9-1-1.2c-0.5-0.3-1-0.5-1.5-0.6
		c-0.6-0.1-1.3-0.2-1.9-0.2H10v8.6H13.2z M13.2,2.8c0.4,0,0.8,0.1,1.1,0.3c0.3,0.3,0.4,0.7,0.4,1.1c0,0.4-0.1,0.8-0.3,1.1
		c-0.2,0.3-0.6,0.5-1,0.5l-0.2,0L13.2,2.8z"/>
	<path class="st0" d="M9.2,22.6L6.6,24l-1.1-1.6c-0.3,0.1-0.6,0.1-0.9,0.1c-1.5,0-2.8-0.7-3.5-2c-0.4-0.6-0.6-1.3-0.8-2
		c-0.3-1.4-0.3-3,0-4.4c0.2-0.7,0.4-1.4,0.8-2c0.7-1.3,2.1-2,3.5-2c0.7,0,1.5,0.2,2.1,0.5c0.6,0.4,1.1,0.9,1.4,1.5
		c0.4,0.6,0.6,1.3,0.8,2c0.2,0.7,0.3,1.5,0.3,2.2c0,2-0.5,3.5-1.3,4.6L9.2,22.6z M5.8,16.4c0-2.1-0.4-3.2-1.3-3.2
		c-0.8,0-1.3,1.1-1.3,3.2c0,2.1,0.4,3.2,1.3,3.2C5.4,19.5,5.8,18.5,5.8,16.4z"/>
	<path class="st0" d="M14.8,10.4h3.2v7.8c0,0.3,0,0.7-0.1,1c-0.1,0.4-0.2,0.8-0.3,1.1c-0.1,0.4-0.4,0.8-0.6,1.1
		c-0.3,0.3-0.7,0.6-1.2,0.8c-0.6,0.2-1.2,0.3-1.9,0.3c-0.6,0-1.3-0.1-1.9-0.3c-0.5-0.2-0.9-0.4-1.2-0.8c-0.3-0.3-0.5-0.7-0.6-1.1
		c-0.1-0.4-0.2-0.7-0.3-1.1c0-0.3-0.1-0.7-0.1-1v-7.8h3.2v7.5c0,0.4,0,0.7,0.1,1c0.1,0.4,0.4,0.6,0.7,0.6c0.4,0,0.7-0.2,0.7-0.6
		c0.1-0.3,0.1-0.7,0.1-1L14.8,10.4z"/>
	<path class="st0" d="M27.5,22.3h-3.3l-0.2-1.5h-2.2l-0.3,1.5h-3.3L21,10.4h3.9L27.5,22.3z M22.1,18.3h1.4l-0.3-2.8
		c0-0.2-0.1-0.5-0.1-0.7c0-0.3-0.1-0.5-0.1-0.8c0-0.3-0.1-0.5-0.1-0.7h0c-0.2,1.3-0.3,2-0.3,2.2L22.1,18.3z"/>
	<path class="st0" d="M36.4,22.3h-3.5l-1.8-5l0,0c0,0.1,0,0.3,0,0.6c0,0.2,0,0.5,0,0.7c0,0.2,0,0.4,0,0.5v3.2h-3.2V10.4H31
		c0.7,0,1.3,0.1,1.9,0.2c0.5,0.1,1.1,0.3,1.5,0.6c0.5,0.3,0.8,0.7,1,1.2c0.2,0.6,0.4,1.3,0.3,1.9c0,0.6-0.1,1.3-0.5,1.8
		c-0.3,0.5-0.8,0.9-1.4,1.2L36.4,22.3z M31.1,15.9l0.2,0c0.4,0,0.7-0.2,1-0.5c0.2-0.3,0.4-0.7,0.3-1.1c0-0.4-0.1-0.8-0.4-1.1
		c-0.3-0.2-0.7-0.4-1.1-0.3L31.1,15.9z"/>
	<path class="st0" d="M41.3,22.3H38v-9h-1.8v-2.9h6.9v2.9h-1.9V22.3z"/>
	<path class="st0" d="M43.8,22.3V10.4h6v2.8H47v1.7h2.5v2.8H47v1.8h2.8v2.8H43.8z"/>
	<path class="st0" d="M58.9,22.3h-3.5l-1.8-5l0,0c0,0.1,0,0.3,0,0.6c0,0.2,0,0.5,0,0.7c0,0.2,0,0.4,0,0.5v3.2h-3.2V10.4h3.1
		c0.7,0,1.3,0.1,1.9,0.2c0.5,0.1,1.1,0.3,1.5,0.6c0.5,0.3,0.8,0.7,1,1.2c0.2,0.6,0.4,1.3,0.3,1.9c0,0.6-0.1,1.3-0.5,1.8
		c-0.3,0.5-0.8,0.9-1.4,1.2L58.9,22.3z M53.6,15.9l0.2,0c0.4,0,0.7-0.2,1-0.5c0.2-0.3,0.4-0.7,0.3-1.1c0-0.4-0.1-0.8-0.4-1.1
		C54.4,13,54,12.9,53.6,13L53.6,15.9z"/>
	<path class="st0" d="M59.4,22.1v-3.7c0.2,0.4,0.6,0.7,0.9,0.9c0.3,0.2,0.7,0.4,1.1,0.4c0.2,0,0.5-0.1,0.7-0.2
		c0.2-0.1,0.3-0.3,0.3-0.6c0-0.2-0.1-0.5-0.3-0.7c-0.2-0.2-0.3-0.3-0.5-0.5c-0.6-0.4-1.1-0.9-1.6-1.5c-0.4-0.6-0.7-1.3-0.6-2.1
		c0-0.4,0.1-0.8,0.2-1.2c0.1-0.4,0.3-0.9,0.6-1.3c0.3-0.4,0.7-0.8,1.1-1c0.5-0.3,1.1-0.4,1.7-0.4c0.8,0,1.6,0.2,2.3,0.6v3.6
		c-0.2-0.3-0.5-0.7-0.8-0.9c-0.3-0.2-0.7-0.4-1.1-0.4c-0.2,0-0.4,0.1-0.6,0.2c-0.2,0.1-0.3,0.3-0.3,0.5c0,0.3,0.1,0.5,0.3,0.7
		c0,0,0.2,0.2,0.6,0.5c0.6,0.4,1.1,0.9,1.6,1.5c0.4,0.6,0.6,1.3,0.6,2.1c0,1.1-0.4,2.1-1.1,2.8c-0.7,0.8-1.7,1.2-2.7,1.1
		C60.9,22.5,60.1,22.4,59.4,22.1z"/>
</g>
</svg>
