<?xml version="1.0" encoding="utf-8"?>
<!-- Generator: Adobe Illustrator 22.0.1, SVG Export Plug-In . SVG Version: 6.00 Build 0)  -->
<svg version="1.1" id="Layer_1" xmlns="http://www.w3.org/2000/svg" xmlns:xlink="http://www.w3.org/1999/xlink" x="0px" y="0px"
	 viewBox="0 0 370 100" style="enable-background:new 0 0 370 100;" xml:space="preserve">
<style type="text/css">
	.st0{fill:#FFFFFF;}
</style>
<g>
	<path class="st0" d="M28.4,25.2H42v49.7H28.4V56.8h-15v18.1H0V25.2h13.5V45h15V25.2z M73.6,25.2l18,49.7H77.7l-2.5-8.1h-16
		l-2.5,8.1H42.7l18.1-49.7H73.6z M71.7,55.7l-4.5-14.4h-0.1l-4.5,14.4H71.7z M121.9,57.7l11.3,17.2h-15.5l-9.4-15.2h-3.1v15.2H92.3
		V25.2h19.9c12.5,0,18.1,7.4,18.1,17.7C130.4,50.1,127.2,55.1,121.9,57.7L121.9,57.7z M116.6,42.5c0-3.1-2.5-5.7-7.3-5.7h-4.1v11.4
		h4.1C113.5,48.2,116.6,46.3,116.6,42.5z M178.2,50.1c0,14.6-9.5,24.8-25.6,24.8h-18.1V25.2h17.9C168.1,25.2,178.2,35.4,178.2,50.1z
		 M164.2,50.1c0-7.4-5-13.1-11.6-13.1h-5.3v26.1h4.3C159.2,63.1,164.2,57.3,164.2,50.1z M207.3,37h21.3V25.2h-34.2v49.7h12.9V58.2
		h17.4V46.4h-17.4V37z M280.1,50c0,15.2-10.7,25.6-25.9,25.6c-15.3,0-25.9-10.4-25.9-25.6s10.6-25.6,25.9-25.6
		C269.4,24.4,280.1,34.8,280.1,50z M266.2,50c0-7.3-4.8-13.2-11.9-13.2c-7,0-12,5.8-12,13.2s5,13.2,12,13.2
		C261.3,63.2,266.2,57.4,266.2,50z M312.6,57.7l11.3,17.2h-15.5L299,59.7h-3.1v15.2H283V25.2h19.9c12.5,0,18.1,7.4,18.1,17.7
		C321.1,50.1,317.9,55.1,312.6,57.7L312.6,57.7z M307.3,42.5c0-3.1-2.5-5.7-7.3-5.7h-4.1v11.4h4.1C304.2,48.2,307.3,46.3,307.3,42.5
		z M352.7,25.2c-0.7,0-1.4,0.5-1.6,1.1l-6.4,17.3c-0.1,0.3-0.5,0.6-0.8,0.6h-5.5v-19h-13.2v49.7h13.2v-19h11.8
		c0.7,0,1.4-0.5,1.6-1.1l6.4-17.3c0.1-0.3,0.5-0.6,0.8-0.6H370V25.2H352.7z M354.7,74.9H370V63.1h-15.3V74.9z"/>
</g>
</svg>
