<svg xmlns:xlink="http://www.w3.org/1999/xlink" xmlns="http://www.w3.org/2000/svg" class="c-nav__socialIcon" width="16"  height="16" ><defs><symbol id="facebook" viewBox="0 0 16 16">
        <path d="M16,1V15a1.007,1.007,0,0,1-1,1H11V9.78125h2l.33594-2.30469H11V5.66406a.9118.9118,0,0,1,1-1.03125h1.5V2.55469a11.284,11.284,0,0,0-1.64062-.10938c-2.19532,0-3.30469,1.21875-3.30469,3.03907V7.47656h-2V9.78125h2V16H1a1.007,1.007,0,0,1-1-1V1A1.007,1.007,0,0,1,1,0H15A1.007,1.007,0,0,1,16,1Z"></path>
    </symbol></defs><use xlink:href="#facebook" fill="#FFFFFF"></use></svg>