<svg xmlns:xlink="http://www.w3.org/1999/xlink" xmlns="http://www.w3.org/2000/svg" class="c-nav__socialIcon" width="16"  height="16" ><defs><symbol id="instagram" viewBox="0 0 16 16">
        <path d="M8,1.44144c2.1361,0,2.38911.00815,3.23268.04664a4.42649,4.42649,0,0,1,1.48549.27546A2.47861,2.47861,0,0,1,13.638,2.362a2.47851,2.47851,0,0,1,.59844.91986,4.42673,4.42673,0,0,1,.27546,1.48548c.03849.84358.04664,1.0966.04664,3.23269s-.00815,2.38911-.04664,3.23268a4.42675,4.42675,0,0,1-.27546,1.48549,2.6493,2.6493,0,0,1-1.51829,1.51829,4.42675,4.42675,0,0,1-1.48549.27546c-.84345.03849-1.09644.04664-3.23268.04664s-2.38923-.00815-3.23268-.04664a4.42675,4.42675,0,0,1-1.48549-.27546A2.47849,2.47849,0,0,1,2.362,13.638a2.47863,2.47863,0,0,1-.59844-.91986,4.42647,4.42647,0,0,1-.27546-1.48548C1.44959,10.38911,1.44144,10.1361,1.44144,8s.00815-2.38911.04664-3.23268a4.42649,4.42649,0,0,1,.27546-1.48549A2.47861,2.47861,0,0,1,2.362,2.362a2.47863,2.47863,0,0,1,.91986-.59844,4.42647,4.42647,0,0,1,1.48548-.27546C5.61089,1.44959,5.86391,1.44144,8,1.44144M8,0C5.82733,0,5.55489.0092,4.70161.04813A5.8719,5.8719,0,0,0,2.75969.42a3.92134,3.92134,0,0,0-1.417.92273A3.92134,3.92134,0,0,0,.42,2.75969,5.8719,5.8719,0,0,0,.04813,4.70161C.0092,5.55489,0,5.82732,0,8s.0092,2.4451.04813,3.29839A5.8719,5.8719,0,0,0,.42,13.24031a3.92142,3.92142,0,0,0,.92273,1.417,3.92134,3.92134,0,0,0,1.417.92273,5.8719,5.8719,0,0,0,1.94192.37186C5.55489,15.9908,5.82733,16,8,16s2.4451-.0092,3.29839-.04813A5.8719,5.8719,0,0,0,13.24031,15.58a4.09069,4.09069,0,0,0,2.3397-2.3397,5.8719,5.8719,0,0,0,.37186-1.94192C15.9908,10.4451,16,10.17267,16,8s-.0092-2.44511-.04813-3.29839A5.8719,5.8719,0,0,0,15.58,2.75969a3.92134,3.92134,0,0,0-.92273-1.417A3.92134,3.92134,0,0,0,13.24031.42,5.8719,5.8719,0,0,0,11.29839.04813C10.4451.0092,10.17267,0,8,0Z"></path>
        <path d="M8,3.89189A4.10811,4.10811,0,1,0,12.10811,8,4.10811,4.10811,0,0,0,8,3.89189Zm0,6.77477A2.66667,2.66667,0,1,1,10.66667,8,2.66666,2.66666,0,0,1,8,10.66666Z"></path>
        <circle cx="12.27042" cy="3.72958" r="0.96"></circle>
    </symbol></defs><use xlink:href="#instagram" fill="#FFFFFF"></use></svg>