<svg xmlns:xlink="http://www.w3.org/1999/xlink" xmlns="http://www.w3.org/2000/svg" class="c-footer__contactIcon" width="24"  height="24" ><defs><symbol id="linkedin" viewBox="0 0 16 16">
        <path d="M14.81635,0H1.18015A1.16757,1.16757,0,0,0,0,1.15365V14.84546A1.16833,1.16833,0,0,0,1.18015,16h13.6362A1.17052,1.17052,0,0,0,16,14.84546V1.15365A1.16977,1.16977,0,0,0,14.81635,0ZM4.74622,13.63368H2.37072V5.99826h2.3755ZM3.55912,4.95505A1.37618,1.37618,0,1,1,4.93457,3.57878,1.37558,1.37558,0,0,1,3.55912,4.95505Zm10.07539,8.67863H11.26159V9.92057c0-.88541-.01519-2.02452-1.23311-2.02452-1.23481,0-1.42321.96506-1.42321,1.96115v3.77648H6.235V5.99826h2.2748V7.04207h.03255a2.49287,2.49287,0,0,1,2.24529-1.23329c2.40281,0,2.84689,1.581,2.84689,3.6374Z"></path>
    </symbol></defs><use xlink:href="#linkedin" fill="#FFFFFF"></use></svg>