<svg xmlns:xlink="http://www.w3.org/1999/xlink" xmlns="http://www.w3.org/2000/svg" class="c-button__icon" width="20"  height="20" ><defs><symbol id="mail" viewBox="0 0 16 16">
        <path d="M1.11621 4.2666a2.0026 2.0026 0 0 1-.583-.8833v-.7666A.47788.47788 0 0 1 .667 2.2749a.56688.56688 0 0 1 .3164-.1748 49.3662 49.3662 0 0 1 14.0166 0 .57417.57417 0 0 1 .333.1748.482.482 0 0 1 .13379.3418v.7666a2.0026 2.0026 0 0 1-.583.8833L9.2002 8.56689A1.88658 1.88658 0 0 1 8 8.93311a1.88658 1.88658 0 0 1-1.2002-.36622zM10.18359 10l5.28321-4.0498v7.4331a.48117.48117 0 0 1-.13379.3418.57141.57141 0 0 1-.333.1748 48.721 48.721 0 0 1-7 .5 49.29676 49.29676 0 0 1-7.0166-.5.564.564 0 0 1-.31641-.1748.47707.47707 0 0 1-.13379-.3418V5.9502L5.81641 10A3.5224 3.5224 0 0 0 8 10.6665 3.5224 3.5224 0 0 0 10.18359 10z"></path>
    </symbol></defs><use xlink:href="#mail" fill-opacity="0.25" fill="#505666"></use></svg>