<svg xmlns:xlink="http://www.w3.org/1999/xlink" xmlns="http://www.w3.org/2000/svg" class="c-nav__socialIcon" width="16"  height="16" ><defs><symbol id="twitter" viewBox="0 0 16 16">
        <path d="M14.36719,4.73438v.42968A9.26817,9.26817,0,0,1,5.03906,14.5,9.21783,9.21783,0,0,1,0,13.16406a5.18177,5.18177,0,0,0,.78125.05469,6.62381,6.62381,0,0,0,4.07031-1.55469A3.27084,3.27084,0,0,1,1.79688,9.38281a3.22534,3.22534,0,0,0,.60937.0625,3.2821,3.2821,0,0,0,.875-.11719A3.27938,3.27938,0,0,1,.64844,6.10938V6.07031a3.29,3.29,0,0,0,1.48437.40625A3.266,3.266,0,0,1,.66406,3.75781a3.12781,3.12781,0,0,1,.44532-1.59375A9.32841,9.32841,0,0,0,7.86719,5.53125a3.4194,3.4194,0,0,1-.07031-.75781A3.26752,3.26752,0,0,1,11.07031,1.5a3.39565,3.39565,0,0,1,2.41407,1.03125,6.58929,6.58929,0,0,0,2.07031-.79687,3.25439,3.25439,0,0,1-1.44531,1.82031A6.402,6.402,0,0,0,16,3.03125,6.64835,6.64835,0,0,1,14.36719,4.73438Z"></path>
    </symbol></defs><use xlink:href="#twitter" fill="#FFFFFF"></use></svg>